<?xml version="1.0" encoding="utf-8"?>
<!-- Generator: Adobe Illustrator 19.1.0, SVG Export Plug-In . SVG Version: 6.00 Build 0)  -->
<!DOCTYPE svg PUBLIC "-//W3C//DTD SVG 1.1//EN" "http://www.w3.org/Graphics/SVG/1.1/DTD/svg11.dtd">
<svg version="1.1" id="Layer_1" xmlns="http://www.w3.org/2000/svg" xmlns:xlink="http://www.w3.org/1999/xlink" x="0px" y="0px"
	 viewBox="0 0 150 60.2" enable-background="new 0 0 150 60.2" xml:space="preserve">
<path fill="#EEEEEE" d="M21.2,8.9C9.5,8.9,0,18.4,0,30.1s9.5,21.2,21.2,21.2s21.2-9.5,21.2-21.2S33,8.9,21.2,8.9z M15.4,38.8
	c-1.8,0-3.2-1.4-3.2-3.2s1.4-3.2,3.2-3.2c1.8,0,3.2,1.4,3.2,3.2S17.2,38.8,15.4,38.8z M15.4,27.9c-1.8,0-3.2-1.4-3.2-3.2
	c0-1.8,1.4-3.2,3.2-3.2c1.8,0,3.2,1.4,3.2,3.2C18.7,26.4,17.2,27.9,15.4,27.9z M26.4,38.8c-1.8,0-3.2-1.4-3.2-3.2s1.4-3.2,3.2-3.2
	c1.8,0,3.2,1.4,3.2,3.2S28.2,38.8,26.4,38.8z M26.4,27.9c-1.8,0-3.2-1.4-3.2-3.2c0-1.8,1.4-3.2,3.2-3.2c1.8,0,3.2,1.4,3.2,3.2
	C29.6,26.4,28.2,27.9,26.4,27.9z"/>
<path fill="#EEEEEE" d="M128.8,8.9c-11.7,0-21.2,9.5-21.2,21.2s9.5,21.2,21.2,21.2S150,41.9,150,30.1S140.5,8.9,128.8,8.9z
	 M123,38.8c-1.8,0-3.2-1.4-3.2-3.2s1.4-3.2,3.2-3.2c1.8,0,3.2,1.4,3.2,3.2S124.7,38.8,123,38.8z M123,27.9c-1.8,0-3.2-1.4-3.2-3.2
	c0-1.8,1.4-3.2,3.2-3.2c1.8,0,3.2,1.4,3.2,3.2C126.2,26.4,124.7,27.9,123,27.9z M133.9,38.8c-1.8,0-3.2-1.4-3.2-3.2s1.4-3.2,3.2-3.2
	c1.8,0,3.2,1.4,3.2,3.2S135.7,38.8,133.9,38.8z M133.9,27.9c-1.8,0-3.2-1.4-3.2-3.2c0-1.8,1.4-3.2,3.2-3.2c1.8,0,3.2,1.4,3.2,3.2
	C137.1,26.4,135.7,27.9,133.9,27.9z"/>
<path fill="#EEEEEE" d="M75.1,5.8c13.5,0,24.4,11,24.4,24.4s-11,24.4-24.4,24.4s-24.4-11-24.4-24.4S61.6,5.8,75.1,5.8 M75.1,0.8
	C58.9,0.8,45.7,14,45.7,30.2s13.2,29.4,29.4,29.4s29.4-13.2,29.4-29.4S91.3,0.8,75.1,0.8L75.1,0.8z"/>
<g>
	<path fill="#EEEEEE" d="M75.1,7.5c-12.6,0-22.9,10.2-22.9,22.9c0,12.6,10.2,22.9,22.9,22.9S97.9,43,97.9,30.3
		C97.9,17.7,87.7,7.5,75.1,7.5z M68.9,32.6c-1.3,1.3-3.4,1.3-4.7,0c-1.3-1.3-1.3-3.4,0-4.7c1.3-1.3,3.4-1.3,4.7,0
		C70.2,29.2,70.2,31.3,68.9,32.6z M76.9,40.7c-1.3,1.3-3.4,1.3-4.7,0s-1.3-3.4,0-4.7c1.3-1.3,3.4-1.3,4.7,0S78.2,39.4,76.9,40.7z
		 M76.9,24.5c-1.3,1.3-3.4,1.3-4.7,0c-1.3-1.3-1.3-3.4,0-4.7c1.3-1.3,3.4-1.3,4.7,0C78.2,21.1,78.2,23.2,76.9,24.5z M85,32.6
		c-1.3,1.3-3.4,1.3-4.7,0s-1.3-3.4,0-4.7c1.3-1.3,3.4-1.3,4.7,0C86.3,29.2,86.3,31.3,85,32.6z"/>
</g>
</svg>
